HIERARCHY
ROOT root     
{
	OFFSET 0.0000 0.0000 0.0000
	CHANNELS 6 Xposition Yposition Zposition Zrotation Yrotation Xrotation
	JOINT pelvis   
	{
		OFFSET 0.0000 0.0000 0.0000
		CHANNELS 3 Zrotation Yrotation Xrotation
		JOINT thorax   
		{
			OFFSET 0.0000 23.0750 -5.0000
			CHANNELS 3 Zrotation Yrotation Xrotation
			JOINT rclavicle
			{
				OFFSET 0.0000 28.0009 0.0000
				CHANNELS 3 Zrotation Yrotation Xrotation
				JOINT rhumerus 
				{
					OFFSET -18.5725 5.5939 0.0000
					CHANNELS 3 Zrotation Yrotation Xrotation
					JOINT rradius  
					{
						OFFSET -24.8459 0.0000 0.0000
						CHANNELS 3 Zrotation Yrotation Xrotation
						JOINT rhand    
						{
							OFFSET -24.5477 0.0000 0.0000
							CHANNELS 3 Zrotation Yrotation Xrotation
							End Site
							{
								OFFSET -8.1826 0.0000 0.0000
							}
						}
					}
				}
			}
			JOINT lclavicle
			{
				OFFSET 0.0000 28.0009 0.0000
				CHANNELS 3 Zrotation Yrotation Xrotation
				JOINT lhumerus 
				{
					OFFSET 18.5725 5.5939 0.0000
					CHANNELS 3 Zrotation Yrotation Xrotation
					JOINT lradius  
					{
						OFFSET 24.8459 0.0000 0.0000
						CHANNELS 3 Zrotation Yrotation Xrotation
						JOINT lhand    
						{
							OFFSET 24.5477 0.0000 0.0000
							CHANNELS 3 Zrotation Yrotation Xrotation
							End Site
							{
								OFFSET 8.1826 0.0000 0.0000
							}
						}
					}
				}
			}
			JOINT head     
			{
				OFFSET 0.0000 35.2030 0.0000
				CHANNELS 3 Zrotation Yrotation Xrotation
				End Site
				{
					OFFSET 0.0000 11.7343 0.0000
				}
			}
		}
		JOINT rfemur   
		{
			OFFSET -8.2817 0.0000 0.0000
			CHANNELS 3 Zrotation Yrotation Xrotation
			JOINT rtibia   
			{
				OFFSET 0.0000 -43.3627 0.0000
				CHANNELS 3 Zrotation Yrotation Xrotation
				JOINT rfoot    
				{
					OFFSET 0.0000 -38.2947 0.0000
					CHANNELS 3 Zrotation Yrotation Xrotation
					JOINT rtoes    
					{
						OFFSET 0.0000 0.0000 16.6054
						CHANNELS 3 Zrotation Yrotation Xrotation
						End Site
						{
							OFFSET 0.0000 0.0000 5.5351
						}
					}
				}
			}
		}
		JOINT lfemur   
		{
			OFFSET 8.2817 0.0000 0.0000
			CHANNELS 3 Zrotation Yrotation Xrotation
			JOINT ltibia   
			{
				OFFSET 0.0000 -43.3627 0.0000
				CHANNELS 3 Zrotation Yrotation Xrotation
				JOINT lfoot    
				{
					OFFSET 0.0000 -38.2947 0.0000
					CHANNELS 3 Zrotation Yrotation Xrotation
					JOINT ltoes    
					{
						OFFSET 0.0000 0.0000 16.6054
						CHANNELS 3 Zrotation Yrotation Xrotation
						End Site
						{
							OFFSET 0.0000 0.0000 5.5351
						}
					}
				}
			}
		}
	}
}
MOTION
Frames: 7
Frame Time: .0333333
-0.814 82.769 -4.1168 45.5971 77.7865 62.6583 0 -0 0 3.75967 -18.243 -11.6321 25.5725 -14.5249 -0.000173811 51.3285 -7.9103 -8.59155 -0 79.7219 -0 2.75516 7.60331 0.183099 -26.2724 14.8444 -1.7562e-05 -33.564 4.02716 15.89 180 -85.273 180 -0.339899 2.5431 -0.00749997 -14.8609 -3.34736 -8.74319 4.36626 -0.0759041 -38.7469 -0 -0 35.6678 1.87154e-05 -12.1604 -7.04299 -178.487 2.23511e-06 -12.6456 1.7472 12.2869 2.75726 -0 -0 30.4716 6.28002e-05 -9.4539 26.1524 -4.1976 -3.66235e-05 -65.2864 
0.4356 82.6 -3.5816 47.2123 78.085 63.9782 0 -0 0 3.92097 -18.706 -11.5844 25.9297 -14.1786 1.36392e-06 52.8549 -7.4863 -11.1 -1.27948e-06 77.8942 -1.58302e-06 0.270892 8.09036 0.0191994 -26.5516 14.7937 0.000115875 -33.9727 3.75218 14.6092 -180 -86.4922 180 0.266307 2.77211 0.00640024 -15.1499 -2.97965 -8.53953 4.49878 0.0250796 -38.0777 -0 -0 37.0298 3.42874e-06 -12.4352 -8.45138 -178.144 6.54593e-06 -13.2054 2.59227 11.8165 2.35173 -0 -0 32.4992 -1.09593e-05 -9.95253 26.4057 -4.46211 4.75028e-05 -61.5306 
1.6635 82.484 -3.0221 49.145 78.4605 65.626 0 -0 0 4.09602 -19.1871 -11.5444 26.2861 -13.8712 8.08104e-05 54.3179 -6.92457 -13.4605 -0 75.9984 -0 -2.59205 8.27539 -0.187504 -26.7904 14.7107 -6.73627e-05 -34.5068 3.42297 13.3941 -180 -87.8795 180 1.0326 3.07084 0.0277004 -15.348 -2.64521 -8.22823 4.75507 -0.00855928 -37.1757 -0 -0 37.8152 9.64485e-06 -12.7139 -9.76426 -177.809 1.05475e-05 -13.2638 3.49764 11.352 1.79526 -0 -0 34.5557 5.16292e-05 -10.0146 26.5286 -4.50977 3.68274e-05 -57.9864 
2.8695 82.419 -2.4462 51.4649 78.8831 67.683 0 -0 0 4.246 -19.6586 -11.5351 26.633 -13.6107 -4.90372e-05 55.6923 -6.27672 -15.6132 -9.38186e-07 74.0887 -1.24298e-06 -5.87326 8.12712 -0.417603 -26.9792 14.5906 -1.9308e-05 -35.1301 3.05998 12.2733 -180 -89.4532 180 1.94904 3.41793 0.0582018 -15.4451 -2.35376 -7.79659 5.09052 -0.161356 -36.0959 -0 -0 38.0794 5.7171e-05 -13.0097 -10.9588 -177.485 -3.83698e-06 -12.9913 4.40595 10.8895 1.08202 -0 -0 36.6102 1.59801e-05 -9.57501 26.5165 -4.30696 -4.75807e-05 -54.7792 
4.0552 82.401 -1.8617 54.1842 79.296 70.1701 0 -0 0 4.33435 -20.0958 -11.5639 26.9642 -13.403 0.000140464 56.9562 -5.57883 -17.4903 -0 72.2044 -0 -9.56725 7.62886 -0.639313 -27.1171 14.4428 0.000135586 -35.7985 2.66763 11.2697 -1.34855e-05 -88.9842 1.40356e-05 2.98959 3.78698 0.0988998 -15.4315 -2.11182 -7.2446 5.45927 -0.405681 -34.8873 -0 -0 37.8972 4.13467e-05 -13.3279 -12.0032 -177.179 -7.51938e-06 -12.5272 5.2623 10.4309 0.221393 -0 -0 38.6257 -9.74553e-05 -8.60359 26.3769 -3.84536 7.39929e-05 -52.0937 
5.222 82.426 -1.273 57.2169 79.6644 73.0055 0 -0 0 4.34416 -20.472 -11.6296 27.2707 -13.2502 -0.000124833 58.0898 -4.86739 -19.039 -0 70.3738 -0 -13.6002 6.78529 -0.81003 -27.2098 14.2827 -8.71717e-05 -36.469 2.25429 10.4024 -8.7963e-06 -87.2909 9.22326e-06 4.11206 4.15034 0.149097 -15.305 -1.92128 -6.58528 5.8259 -0.693776 -33.5895 -0 -0 37.35 2.64921e-05 -13.6723 -12.8688 -176.899 -7.18856e-06 -12.0404 6.03304 9.98694 -0.768842 -0 -0 40.5645 -1.97245e-05 -7.11765 26.1113 -3.1456 2.15547e-06 -50.0153 
6.3708 82.491 -0.687 60.4306 79.9387 76.0614 0 -0 0 4.24864 -20.7617 -11.7286 27.543 -13.1368 7.1576e-05 59.0821 -4.18437 -20.2299 -0 68.6072 -0 -17.816 5.63594 -0.8841 -27.2629 14.1133 -9.35412e-05 -37.1002 1.84144 9.67777 0 -85.5938 0 5.25965 4.48485 0.206101 -15.0653 -1.78183 -5.83775 6.14892 -0.98371 -32.245 -0 -0 36.5331 0.000129442 -14.0314 -13.534 -176.653 -1.79118e-05 -11.6619 6.67446 9.56707 -1.86796 -0 -0 42.3919 -2.25378e-05 -5.16837 25.7125 -2.24732 -1.41922e-06 -48.3706 
